<svg xmlns="http://www.w3.org/2000/svg" version="1.1" xmlns:xlink="http://www.w3.org/1999/xlink" width="1000" height="1000"><g clip-path="url(#SvgjsClipPath1212)"><rect width="1000" height="1000" fill="#ffffff"></rect><g transform="matrix(1.2173913043478262,0,0,1.2173913043478262,150,202.3478260869565)"><svg xmlns="http://www.w3.org/2000/svg" version="1.1" xmlns:xlink="http://www.w3.org/1999/xlink" width="575" height="489"><svg id="svg" version="1.1" xmlns="http://www.w3.org/2000/svg" style="display: block;" viewBox="0 0 575 489"><path d="M0 0 C189.75 0 379.5 0 575 0 C575 161.37 575 322.74 575 489 C385.25 489 195.5 489 0 489 C0 327.63 0 166.26 0 0 Z " transform="translate(0,0)" fill-opacity="0"></path><path d="M0 0 C4.87549958 2.44313113 7.96359391 6.33071176 9.89453125 11.38671875 C11.02820536 17.13238525 10.56954566 21.90813277 7.64453125 27.01171875 C6.42487815 28.82417999 5.17000114 30.61309364 3.89453125 32.38671875 C3.05721282 33.58497371 2.22138389 34.78427033 1.38671875 35.984375 C-0.60600745 38.83516785 -2.61646626 41.67256116 -4.63671875 44.50390625 C-8.46145104 49.87222276 -12.22179953 55.28453126 -15.98046875 60.69921875 C-17.34882993 62.668058 -18.7173194 64.63680809 -20.0859375 66.60546875 C-20.75802246 67.57226562 -21.43010742 68.5390625 -22.12255859 69.53515625 C-36.51031336 90.2257467 -36.51031336 90.2257467 -43.24853516 99.46972656 C-51.07923455 110.22061949 -58.61873101 120.87663187 -64.41796875 132.88671875 C-64.88843628 133.8459021 -64.88843628 133.8459021 -65.3684082 134.82446289 C-66.36998955 136.98433194 -67.24146649 139.16788291 -68.10546875 141.38671875 C-68.44756882 142.25190125 -68.78966888 143.11708374 -69.14213562 144.00848389 C-72.85817161 154.94434743 -72.64787697 165.68037988 -72.59132385 177.11803436 C-72.57389301 180.75149475 -72.58165987 184.38417144 -72.59558105 188.01763916 C-72.62077715 195.72405411 -72.61543765 203.43027945 -72.60546875 211.13671875 C-72.59391228 220.08825144 -72.5951649 229.03939851 -72.62953186 237.99088287 C-72.63659225 241.5571947 -72.61999666 245.12288525 -72.60241699 248.68914795 C-72.60812683 250.8874952 -72.61494508 253.08583995 -72.62304688 255.28417969 C-72.61173233 256.26416428 -72.60041779 257.24414886 -72.58876038 258.25382996 C-72.6734131 267.90859129 -76.20655612 275.46137538 -81.35546875 283.44921875 C-89.64039555 296.77493756 -95.31749763 310.93199836 -100.10546875 325.82421875 C-100.62414399 327.40997627 -101.14352422 328.99550335 -101.66357422 330.58081055 C-104.94523638 340.62277349 -108.1069845 350.70111085 -111.17456055 360.81054688 C-114.05597735 370.30227282 -117.09853657 379.73947152 -120.17089844 389.1706543 C-122.52657513 396.41542317 -124.82017383 403.67541986 -127.046875 410.9609375 C-127.54107316 412.56849813 -128.03545661 414.17600182 -128.5300293 415.78344727 C-129.25150902 418.1285345 -129.96926863 420.47439504 -130.67446899 422.82443237 C-131.32648929 424.99678408 -131.99202514 427.16458981 -132.66015625 429.33203125 C-133.03640137 430.57484863 -133.41264648 431.81766602 -133.80029297 433.09814453 C-135.15149099 436.50267826 -136.57703604 438.75028004 -139.10546875 441.38671875 C-142.10546875 442.38671875 -142.10546875 442.38671875 -145.10546875 442.38671875 C-147.26175445 441.16660392 -147.26175445 441.16660392 -149.10546875 439.38671875 C-149.60522276 437.32710087 -149.60522276 437.32710087 -149.6048975 434.90855598 C-149.61449499 433.9860499 -149.62409248 433.06354382 -149.63398081 432.113083 C-149.62417403 431.09802178 -149.61436726 430.08296055 -149.60426331 429.03713989 C-149.61234014 427.42149999 -149.61234014 427.42149999 -149.62058014 425.7732209 C-149.63390864 422.14562375 -149.61867226 418.51869629 -149.60375977 414.89111328 C-149.60758062 412.29782804 -149.61319765 409.70454491 -149.6204834 407.11126709 C-149.63358755 401.51767312 -149.63240029 395.92422852 -149.62188911 390.33063126 C-149.6069642 382.23775993 -149.61685322 374.14506423 -149.6334083 366.05220293 C-149.65988383 352.91549385 -149.67072772 339.77882413 -149.66967773 326.64208984 C-149.66959025 325.46231848 -149.66959025 325.46231848 -149.669501 324.25871335 C-149.66923515 321.0719019 -149.66891787 317.88509047 -149.66853774 314.69827903 C-149.66757181 305.92954877 -149.66889875 297.1608197 -149.67163086 288.39208984 C-149.67187075 287.6071382 -149.67211064 286.82218655 -149.67235781 286.01344849 C-149.67676323 272.92889642 -149.69299258 259.84438091 -149.71685165 246.75985038 C-149.73093159 238.68687034 -149.733794 230.61402907 -149.72222876 222.54104422 C-149.71404591 216.35644584 -149.72075143 210.1719481 -149.73291779 203.98735809 C-149.73533048 201.44806496 -149.73256564 198.90876099 -149.72430992 196.36948013 C-149.71373175 192.90956711 -149.72140785 189.45016119 -149.73365784 185.99026489 C-149.72608178 184.97966511 -149.71850573 183.96906533 -149.71070009 182.92784131 C-149.75474493 176.16280003 -149.75474493 176.16280003 -153.10546875 170.38671875 C-156.33901014 168.76994805 -158.5330741 168.91039946 -162.10546875 169.38671875 C-167.34111489 173.85379676 -170.97868861 180.48774882 -174.68359375 186.203125 C-175.29507263 187.13664291 -175.90655151 188.07016083 -176.53656006 189.03196716 C-178.4808714 192.00135924 -180.41867967 194.97491587 -182.35546875 197.94921875 C-184.89868684 201.84875564 -187.44520063 205.7461042 -189.99609375 209.640625 C-190.60731079 210.57379547 -191.21852783 211.50696594 -191.8482666 212.46841431 C-196.7468854 219.91355829 -201.83229088 227.20282385 -207.10546875 234.38671875 C-205.38974787 238.00826543 -203.33625521 240.55336675 -200.60546875 243.51171875 C-200.14132568 244.01670898 -199.67718262 244.52169922 -199.19897461 245.04199219 C-196.05764542 248.41765944 -192.81490656 251.67323888 -189.515625 254.89453125 C-188.71640625 255.67812012 -187.9171875 256.46170898 -187.09375 257.26904297 C-185.50541064 258.81933635 -183.9080374 260.3604405 -182.30078125 261.89111328 C-176.99209425 267.06984326 -172.93382969 271.85509713 -171.57421875 279.29296875 C-171.66100423 286.49616335 -172.72687568 291.86991051 -177.82421875 297.17578125 C-183.03397379 301.83365546 -187.24235499 302.88685928 -194.21484375 302.77734375 C-199.22601931 302.10015786 -202.29364144 299.56324151 -206.10546875 296.38671875 C-207.11609375 295.55140625 -208.12671875 294.71609375 -209.16796875 293.85546875 C-213.03980706 290.61855656 -216.86300941 287.32541035 -220.68066406 284.02490234 C-222.14806276 282.7617002 -223.62655549 281.51142038 -225.10546875 280.26171875 C-225.95109375 279.53726562 -226.79671875 278.8128125 -227.66796875 278.06640625 C-230.26006555 276.2801857 -231.97030474 275.56677885 -235.10546875 275.38671875 C-237.5488512 277.8301012 -237.3950095 278.58106452 -237.52294922 281.94628906 C-237.56153046 282.89618713 -237.60011169 283.84608521 -237.63986206 284.82476807 C-237.75669744 289.25589939 -237.8543371 293.68637751 -237.91552734 298.11865234 C-237.95817204 300.42884053 -238.02574822 302.73872946 -238.12060547 305.04736328 C-238.81979532 322.24345248 -236.01018605 333.72555727 -226.56018066 348.15588379 C-224.70775562 350.9966212 -223.05652587 353.91323687 -221.3984375 356.87109375 C-220.36647799 358.62818348 -219.33137583 360.3834317 -218.29296875 362.13671875 C-217.10476841 364.15714038 -215.91729413 366.17798914 -214.73046875 368.19921875 C-214.13363281 369.215 -213.53679687 370.23078125 -212.921875 371.27734375 C-210.47083069 375.47310992 -208.05812194 379.69039859 -205.64355469 383.90722656 C-198.25721028 396.79727456 -190.62871321 409.52360086 -182.8828125 422.19921875 C-182.24504883 423.24674316 -181.60728516 424.29426758 -180.95019531 425.37353516 C-179.74535889 427.3415197 -178.52901998 429.30252094 -177.29980469 431.25537109 C-176.75485352 432.1314502 -176.20990234 433.0075293 -175.6484375 433.91015625 C-175.17043701 434.66731934 -174.69243652 435.42448242 -174.19995117 436.20458984 C-171.9458843 440.6986451 -172.28887717 444.87343133 -173.80859375 449.55078125 C-176.53383504 455.71721705 -180.87262906 459.73220729 -187.10546875 462.38671875 C-194.15581491 463.39018761 -199.80945461 461.76749579 -205.6015625 457.58374023 C-208.14120091 455.35536601 -209.66439045 453.35651217 -211.41796875 450.484375 C-212.30814697 449.04239746 -212.30814697 449.04239746 -213.21630859 447.57128906 C-213.83973145 446.54100586 -214.4631543 445.51072266 -215.10546875 444.44921875 C-215.76627441 443.37381836 -216.42708008 442.29841797 -217.10791016 441.19042969 C-218.46642563 438.97889287 -219.82140554 436.76518035 -221.17285156 434.54931641 C-223.40696287 430.89334397 -225.66946761 427.25573914 -227.93530273 423.61938477 C-233.16406867 415.21816486 -238.31682899 406.77089945 -243.45040894 398.31130981 C-244.53560022 396.5238557 -245.62228824 394.73731872 -246.70922852 392.95092773 C-250.22839757 387.16210096 -253.72012853 381.35970946 -257.16015625 375.5234375 C-257.7951001 374.45528809 -258.43004395 373.38713867 -259.08422852 372.28662109 C-260.27990973 370.27349573 -261.46579902 368.25451243 -262.64038086 366.22900391 C-263.17155518 365.33874512 -263.70272949 364.44848633 -264.25 363.53125 C-264.70737549 362.75112549 -265.16475098 361.97100098 -265.63598633 361.16723633 C-267.3677838 359.0688813 -268.45190773 358.73775276 -271.10546875 358.38671875 C-272.70759309 361.59096743 -272.25863261 365.07645807 -272.26318359 368.59667969 C-272.26826431 369.44564819 -272.27334503 370.2946167 -272.27857971 371.16931152 C-272.28929568 373.01687329 -272.29791103 374.86444813 -272.30469894 376.7120285 C-272.31647242 379.63753574 -272.33592227 382.56289432 -272.3578186 385.48834229 C-272.41947973 393.80760745 -272.47345113 402.12685865 -272.50683594 410.44628906 C-272.52779608 415.53210547 -272.5631135 420.61765305 -272.60759354 425.70331573 C-272.62174664 427.64092084 -272.63047442 429.57857353 -272.63364792 431.51622772 C-272.63856349 434.23083044 -272.66173915 436.94472181 -272.68896484 439.65917969 C-272.68445564 440.85640656 -272.68445564 440.85640656 -272.67985535 442.07781982 C-272.76623953 447.8855974 -273.9698758 452.09181745 -278.04296875 456.46875 C-279.06390625 457.32533203 -279.06390625 457.32533203 -280.10546875 458.19921875 C-280.78609375 458.78316406 -281.46671875 459.36710937 -282.16796875 459.96875 C-287.05399761 463.54461386 -293.3324939 462.93032779 -299.10546875 462.38671875 C-304.53253792 459.82119514 -308.54754567 455.51374378 -311.23079205 450.1279974 C-312.29698278 446.7865046 -312.3530589 443.97272193 -312.35029602 440.46376038 C-312.35256059 439.77924582 -312.35482517 439.09473127 -312.35715836 438.38947386 C-312.36244349 436.10208327 -312.35363179 433.81496492 -312.3449707 431.52758789 C-312.34608397 429.88456129 -312.34814238 428.2415351 -312.35107422 426.59851074 C-312.35579467 423.06160836 -312.35467788 419.52477238 -312.34929848 415.98787117 C-312.34167908 410.38415384 -312.35235701 404.78056391 -312.36650085 399.17686462 C-312.40420709 383.2421726 -312.42246455 367.30753739 -312.41088867 351.37280273 C-312.40465202 342.57084168 -312.41635889 333.76908607 -312.44733399 324.96717542 C-312.46589474 319.40870903 -312.46275833 313.85082879 -312.44316638 308.29237282 C-312.43623252 304.81499327 -312.45034426 301.33792391 -312.47011566 297.86060333 C-312.47511829 296.26198866 -312.47179525 294.66331991 -312.45898247 293.06474876 C-312.3056211 272.44504446 -320.20074332 258.22346673 -334.48999023 243.69189453 C-339.84681204 238.33067749 -345.20838738 233.01425734 -350.94189453 228.0546875 C-354.96898663 224.54834032 -358.78439936 220.8690555 -362.5625 217.09765625 C-363.56696419 216.09818466 -363.56696419 216.09818466 -364.59172058 215.07852173 C-365.99205345 213.68320885 -367.39107421 212.28657797 -368.78881836 210.88867188 C-370.92477623 208.75491829 -373.06863448 206.62931664 -375.21289062 204.50390625 C-376.57991581 203.13981252 -377.9464691 201.77524568 -379.3125 200.41015625 C-380.2687603 199.46467422 -380.2687603 199.46467422 -381.24433899 198.50009155 C-386.53637054 193.1806773 -389.53681716 189.35759324 -389.60546875 181.57421875 C-389.44593875 175.219607 -388.62528377 170.96165347 -384.10546875 166.38671875 C-379.9702206 162.57892238 -376.22915913 161.06567914 -370.60546875 160.82421875 C-361.81869588 161.29688653 -356.98852272 165.11376621 -351.08203125 171.328125 C-347.95657651 174.58329228 -344.53188376 177.45541789 -341.10546875 180.38671875 C-340.05159387 181.30412553 -338.99825113 182.2221438 -337.9453125 183.140625 C-323.62748757 197.36715064 -323.62748757 197.36715064 -306.23046875 204.38671875 C-300.50072451 203.62402401 -295.44686374 201.14361679 -290.2421875 198.76171875 C-280.10132241 194.31640802 -266.55146204 194.74980602 -256.22949219 198.38842773 C-252.06942366 200.02457027 -248.1353264 201.68868751 -244.4140625 204.2109375 C-242.23382737 205.64940692 -242.23382737 205.64940692 -240.24121094 204.86547852 C-237.21618724 202.77099195 -235.55402371 199.96313691 -233.625 196.90234375 C-232.73728304 195.53268938 -231.84873734 194.16357187 -230.95947266 192.79492188 C-230.26171722 191.71271362 -230.26171722 191.71271362 -229.54986572 190.60864258 C-227.12069628 186.87183783 -224.61686945 183.18593934 -222.1171875 179.49609375 C-221.07673028 177.95562897 -220.03636688 176.41510082 -218.99609375 174.87451172 C-215.17771127 169.22546024 -211.3568551 163.57808137 -207.5340271 157.93203735 C-204.65132362 153.67405055 -201.77510756 149.41185698 -198.90625 145.14453125 C-179.51853355 116.38986953 -159.97028554 103.04971138 -125.82177734 96.25854492 C-99.26532779 90.85576827 -80.10436118 73.72831032 -62.96875 53.53125 C-60.9645102 51.22448344 -58.89205618 48.99369572 -56.80615234 46.76098633 C-51.73463483 41.33193233 -46.90494856 35.79562064 -42.25 30 C-39.40550956 26.53376301 -36.38773499 23.24257798 -33.36328125 19.93359375 C-30.97291754 17.23719731 -28.72665934 14.45397474 -26.48046875 11.63671875 C-19.16717706 2.5943651 -12.21433508 -3.55779333 0 0 Z " transform="translate(389.10546875,18.61328125)" style="fill: #357ACC;"></path><path d="M0 0 C3.86134313 2.22558066 6.78256085 5.22887676 9.8359375 8.44140625 C12.96139224 11.69657353 16.38608499 14.56869914 19.8125 17.5 C20.86637488 18.41740678 21.91971762 19.33542505 22.97265625 20.25390625 C37.29048118 34.48043189 37.29048118 34.48043189 54.6875 41.5 C60.41724424 40.73730526 65.47110501 38.25689804 70.67578125 35.875 C81.41796975 31.16609545 95.65139779 31.93047743 106.4375 36.125 C121.74158263 42.48367231 133.57300655 52.90760293 145.08447266 64.56616211 C146.57006468 66.07015839 148.06365205 67.56584905 149.55859375 69.06054688 C153.61788654 73.135341 157.63728506 77.21666281 161.37890625 81.58984375 C166.41227158 87.46712211 172.10829463 92.73201516 177.69335938 98.078125 C183.3490703 103.61910701 187.87554619 108.3743115 189.34375 116.40625 C189.25696452 123.6094446 188.19109307 128.98319176 183.09375 134.2890625 C177.88399496 138.94693671 173.67561376 140.00014053 166.703125 139.890625 C161.69194944 139.21343911 158.62432731 136.67652276 154.8125 133.5 C153.801875 132.6646875 152.79125 131.829375 151.75 130.96875 C147.87816169 127.73183781 144.05495934 124.4386916 140.23730469 121.13818359 C138.76990599 119.87498145 137.29141326 118.62470163 135.8125 117.375 C134.966875 116.65054688 134.12125 115.92609375 133.25 115.1796875 C130.6579032 113.39346695 128.94766401 112.6800601 125.8125 112.5 C123.36911755 114.94338245 123.52295925 115.69434577 123.39501953 119.05957031 C123.35643829 120.00946838 123.31785706 120.95936646 123.27810669 121.93804932 C123.16127131 126.36918064 123.06363165 130.79965876 123.00244141 135.23193359 C122.95979671 137.54212178 122.89222053 139.85201071 122.79736328 142.16064453 C122.09817343 159.35673373 124.9077827 170.83883852 134.35778809 185.26916504 C136.21021313 188.10990245 137.86144288 191.02651812 139.51953125 193.984375 C140.55149076 195.74146473 141.58659292 197.49671295 142.625 199.25 C143.81320034 201.27042163 145.00067462 203.29127039 146.1875 205.3125 C146.78433594 206.32828125 147.38117188 207.3440625 147.99609375 208.390625 C150.44713806 212.58639117 152.85984681 216.80367984 155.27441406 221.02050781 C162.66075847 233.91055581 170.28925554 246.63688211 178.03515625 259.3125 C178.67291992 260.36002441 179.31068359 261.40754883 179.96777344 262.48681641 C181.17260986 264.45480095 182.38894877 266.41580219 183.61816406 268.36865234 C184.16311523 269.24473145 184.70806641 270.12081055 185.26953125 271.0234375 C185.74753174 271.78060059 186.22553223 272.53776367 186.71801758 273.31787109 C188.97208445 277.81192635 188.62909158 281.98671258 187.109375 286.6640625 C184.38413371 292.8304983 180.04533969 296.84548854 173.8125 299.5 C166.76215384 300.50346886 161.10851414 298.88077704 155.31640625 294.69702148 C152.77676784 292.46864726 151.2535783 290.46979342 149.5 287.59765625 C148.60982178 286.15567871 148.60982178 286.15567871 147.70166016 284.68457031 C147.0782373 283.65428711 146.45481445 282.62400391 145.8125 281.5625 C145.15169434 280.48709961 144.49088867 279.41169922 143.81005859 278.30371094 C142.45154312 276.09217412 141.09656321 273.8784616 139.74511719 271.66259766 C137.51100588 268.00662522 135.24850114 264.36902039 132.98266602 260.73266602 C127.75390008 252.33144611 122.60113976 243.8841807 117.46755981 235.42459106 C116.38236853 233.63713695 115.29568051 231.85059997 114.20874023 230.06420898 C110.68957118 224.27538221 107.19784022 218.47299071 103.7578125 212.63671875 C102.80539673 211.03449463 102.80539673 211.03449463 101.83374023 209.39990234 C100.63805902 207.38677698 99.45216973 205.36779368 98.27758789 203.34228516 C97.74641357 202.45202637 97.21523926 201.56176758 96.66796875 200.64453125 C96.21059326 199.86440674 95.75321777 199.08428223 95.28198242 198.28051758 C93.55018495 196.18216255 92.46606102 195.85103401 89.8125 195.5 C88.21037566 198.70424868 88.65933614 202.18973932 88.65478516 205.70996094 C88.64970444 206.55892944 88.64462372 207.40789795 88.63938904 208.28259277 C88.62867307 210.13015454 88.62005772 211.97772938 88.61326981 213.82530975 C88.60149633 216.75081699 88.58204648 219.67617557 88.56015015 222.60162354 C88.49848902 230.9208887 88.44451762 239.2401399 88.41113281 247.55957031 C88.39017267 252.64538672 88.35485525 257.7309343 88.31037521 262.81659698 C88.29622211 264.75420209 88.28749433 266.69185478 88.28432083 268.62950897 C88.27940526 271.34411169 88.2562296 274.05800306 88.22900391 276.77246094 C88.23351311 277.96968781 88.23351311 277.96968781 88.2381134 279.19110107 C88.15172922 284.99887865 86.94809295 289.2050987 82.875 293.58203125 C81.8540625 294.43861328 81.8540625 294.43861328 80.8125 295.3125 C80.131875 295.89644531 79.45125 296.48039062 78.75 297.08203125 C73.86397114 300.65789511 67.58547485 300.04360904 61.8125 299.5 C56.38543083 296.93447639 52.37042308 292.62702503 49.6871767 287.24127865 C48.62098597 283.89978585 48.56490985 281.08600318 48.56767273 277.57704163 C48.56540816 276.89252707 48.56314358 276.20801252 48.56081039 275.50275511 C48.55552526 273.21536452 48.56433696 270.92824617 48.57299805 268.64086914 C48.57188478 266.99784254 48.56982637 265.35481635 48.56689453 263.71179199 C48.56217408 260.17488961 48.56329087 256.63805363 48.56867027 253.10115242 C48.57628967 247.49743509 48.56561174 241.89384516 48.5514679 236.29014587 C48.51376166 220.35545385 48.4955042 204.42081864 48.50708008 188.48608398 C48.51331673 179.68412293 48.50160986 170.88236732 48.47063476 162.08045667 C48.45207401 156.52199028 48.45521042 150.96411004 48.47480237 145.40565407 C48.48173623 141.92827452 48.46762449 138.45120516 48.44785309 134.97388458 C48.44285046 133.37526991 48.4461735 131.77660116 48.45898628 130.17803001 C48.61234765 109.55832571 40.71722543 95.33674798 26.42797852 80.80517578 C21.07115671 75.44395874 15.70958137 70.12753859 9.97607422 65.16796875 C5.94898212 61.66162157 2.13356939 57.98233675 -1.64453125 54.2109375 C-2.64899544 53.21146591 -2.64899544 53.21146591 -3.67375183 52.19180298 C-5.0740847 50.7964901 -6.47310546 49.39985922 -7.87084961 48.00195312 C-10.00680748 45.86819954 -12.15066573 43.74259789 -14.29492188 41.6171875 C-15.66194706 40.25309377 -17.02850035 38.88852693 -18.39453125 37.5234375 C-19.03203812 36.89311615 -19.66954498 36.2627948 -20.32637024 35.6133728 C-25.61840179 30.29395855 -28.61884841 26.47087449 -28.6875 18.6875 C-28.52797 12.33288825 -27.70731502 8.07493472 -23.1875 3.5 C-16.62156466 -2.54600834 -8.18836991 -3.58743907 0 0 Z " transform="translate(28.1875,181.5)" style="fill: #63AC3C;"></path><path d="M0 0 C6.93961393 4.18504826 11.98819242 10.21104933 14.375 18 C14.76258533 21.2212012 14.72591823 24.3902116 14.65161133 27.63037109 C14.64038396 28.54843725 14.62915659 29.46650341 14.617589 30.41238976 C14.44595279 40.27346159 13.74433788 50.08695443 12.94921875 59.9140625 C12.79905279 61.83064614 12.64930722 63.74726275 12.49995422 65.66390991 C12.18848433 69.63561063 11.87095601 73.60676692 11.54907227 77.57763672 C11.13948028 82.63855526 10.74714639 87.70064734 10.35945415 92.76328468 C10.05551156 96.70348627 9.74163404 100.64285013 9.42490578 104.58204269 C9.27618126 106.44830314 9.13065548 108.31482166 8.98856163 110.18159866 C7.70988934 126.86907609 5.88567054 141.27809752 -6.9375 153.375 C-16.16145853 161.04329942 -26.05082836 164.31367025 -37.87744141 164.25537109 C-38.77751419 164.25899155 -39.67758698 164.262612 -40.60493469 164.26634216 C-42.54844783 164.27320677 -44.49198012 164.27574714 -46.43550491 164.27439499 C-49.5124228 164.27342621 -52.58899478 164.28641186 -55.66586304 164.30337524 C-64.41002786 164.34955402 -73.15415481 164.37426841 -81.8984375 164.38085938 C-87.25587353 164.38587034 -92.6129444 164.41009224 -97.97025681 164.44618607 C-100.00917749 164.45598695 -102.04814837 164.45831445 -104.08708572 164.45301437 C-106.93557161 164.44595352 -109.78296506 164.46320354 -112.63134766 164.48583984 C-113.47199265 164.47766739 -114.31263763 164.46949493 -115.17875671 164.46107483 C-119.14235567 164.51713824 -121.1543623 164.70701271 -124.59487915 166.84884644 C-127.17811502 169.58609089 -128.12043288 171.9896021 -129.359375 175.546875 C-129.60185974 176.23094421 -129.84434448 176.91501343 -130.09417725 177.61981201 C-130.95646121 180.07378064 -131.79126469 182.53618937 -132.625 185 C-133.32328481 187.03460232 -134.02187056 189.06910138 -134.72070312 191.10351562 C-136.70751793 196.9121751 -138.67053046 202.72865417 -140.62814331 208.54721069 C-152.15476766 242.77781774 -152.15476766 242.77781774 -157.5625 258.1875 C-157.93213867 259.26354492 -158.30177734 260.33958984 -158.68261719 261.44824219 C-161.13017725 268.34170131 -163.38008594 272.89336732 -169.8046875 276.7734375 C-176.44835574 279.87966302 -183.2874469 279.75235644 -190.46630859 279.65185547 C-192.75394979 279.62495355 -195.03672301 279.65174812 -197.32421875 279.68359375 C-204.27184906 279.70081381 -210.4308091 279.70745841 -216.27294922 275.46240234 C-219.63475408 271.82621399 -220.16510944 268.11412106 -220.0859375 263.32421875 C-219.28049538 259.26287923 -216.67962619 256.65894922 -213.625 254 C-210.7804777 252.57773885 -207.96087776 252.62238263 -204.81640625 252.37890625 C-202.34126355 252.1032176 -202.34126355 252.1032176 -199.625 250 C-198.64366847 247.6700782 -197.83057753 245.43099964 -197.07226562 243.02880859 C-196.83590393 242.30938583 -196.59954224 241.58996307 -196.35601807 240.84873962 C-195.57117347 238.45175041 -194.80137169 236.05019346 -194.03125 233.6484375 C-193.47995845 231.956432 -192.92765324 230.26475647 -192.37438965 228.57339478 C-190.90960884 224.08737329 -189.45710991 219.59747175 -188.00756836 215.10650635 C-186.57346835 210.66803625 -185.13073608 206.23238129 -183.6875 201.796875 C-183.4057341 200.93076221 -183.1239682 200.06464943 -182.83366394 199.1722908 C-180.04122957 190.59234165 -177.23827112 182.0158668 -174.425354 173.44261169 C-173.6391739 171.04325754 -172.85623903 168.64286326 -172.07373047 166.24230957 C-170.86487621 162.53974997 -169.63959864 158.84300607 -168.4016571 155.15007401 C-167.95623329 153.8139394 -167.51581344 152.47612311 -167.08113098 151.13645554 C-162.32709178 136.5108709 -155.50299355 124.43460513 -141.5 117.125 C-135.35836359 114.1679158 -129.48530791 112.75351507 -122.66748047 112.72875977 C-122.01124695 112.72353302 -121.35501343 112.71830627 -120.67889404 112.71292114 C-119.26741779 112.7027532 -117.85590479 112.69691345 -116.44439316 112.69503975 C-114.20755558 112.69134911 -111.97115076 112.67455259 -109.73440552 112.65428162 C-103.37982221 112.59910765 -97.02517836 112.56814259 -90.67041016 112.54370117 C-86.77184563 112.52780895 -82.87359482 112.49758324 -78.97519302 112.45893669 C-77.49450132 112.44731237 -76.01375354 112.44135657 -74.5330162 112.44125557 C-72.4629211 112.44106305 -70.39369086 112.42276706 -68.32373047 112.40063477 C-67.14793427 112.39556412 -65.97213806 112.39049347 -64.76071167 112.38526917 C-61.24774053 111.95364802 -59.40313613 111.17201236 -56.625 109 C-54.12864787 105.59425792 -54.11525971 101.61544003 -53.80297852 97.52856445 C-53.73923035 96.78165848 -53.67548218 96.0347525 -53.60980225 95.26521301 C-53.4725725 93.64607014 -53.33906715 92.02660823 -53.20886421 90.40688515 C-53.00176972 87.83676615 -52.78395295 85.26775738 -52.56321716 82.69877625 C-51.93787286 75.39523364 -51.33387185 68.08994741 -50.73217773 60.78442383 C-50.36304259 56.31157931 -49.9830798 51.83975207 -49.59702873 47.36833763 C-49.38302978 44.84931998 -49.18180876 42.32948862 -48.98085022 39.80940247 C-47.83159146 26.10495788 -45.22686731 14.84103786 -34.75 5.1875 C-33.39557341 4.09889545 -32.02123019 3.03444309 -30.625 2 C-30.06683594 1.56429687 -29.50867188 1.12859375 -28.93359375 0.6796875 C-21.1887167 -4.2756477 -8.20573541 -3.71271771 0 0 Z " transform="translate(478.625,202)" style="fill: #675BB3;"></path><path d="M0 0 C22.0093068 3.14418669 42.12438531 20.14771393 55.25 37.25 C72.09988224 61.75891963 80.21601643 91.23719394 74.74609375 120.8125 C70.5915063 138.56194166 63.84690004 154.9739043 52 169 C51.22914063 169.93328125 50.45828125 170.8665625 49.6640625 171.828125 C31.07164941 193.36884955 4.0222279 205.76187589 -24 209 C-54.00447533 210.89911207 -81.01685883 201.05355238 -104 182 C-104.6496875 181.51402344 -105.299375 181.02804687 -105.96875 180.52734375 C-120.44539519 169.36257258 -129.58670031 150.95327966 -135 134 C-135.350625 133.03320312 -135.70125 132.06640625 -136.0625 131.0703125 C-138.99707232 121.45958814 -141.22819554 106.68458661 -138 97 C-129.09 97 -120.18 97 -111 97 C-110.9175 99.660625 -110.835 102.32125 -110.75 105.0625 C-109.76390752 124.94839791 -102.5088656 142.3653956 -89 157 C-88.37609375 157.71542969 -87.7521875 158.43085938 -87.109375 159.16796875 C-81.61371782 165.13699135 -75.01189345 169.01859536 -68 173 C-67.32324219 173.4125 -66.64648438 173.825 -65.94921875 174.25 C-49.37348191 183.65884397 -28.81355316 182.58220531 -11 178 C9.56904917 171.67640718 26.84660601 158.41325949 37.19628906 139.41210938 C46.91315883 120.62676152 49.25661233 99.52806531 43.390625 79.0703125 C39.75373139 67.80679871 34.00248892 57.72164184 26 49 C25.33613281 48.24460937 24.67226563 47.48921875 23.98828125 46.7109375 C17.29982437 39.51559202 8.94546255 33.8724367 0.10546875 29.6015625 C-2 28 -2 28 -2.55859375 25.390625 C-2.51863281 24.35421875 -2.47867188 23.3178125 -2.4375 22.25 C-2.39496094 21.10660156 -2.35242188 19.96320313 -2.30859375 18.78515625 C-1.79471473 12.4820072 -0.96812485 6.24959169 0 0 Z " transform="translate(498,280)" style="fill: #FDA20A;"></path><path d="M0 0 C9.48050138 7.01557102 15.70105366 16.39797511 18.5390625 27.87890625 C18.95060572 31.16324794 19.01695472 34.38405272 18.9765625 37.69140625 C18.96898926 38.56579346 18.96141602 39.44018066 18.95361328 40.34106445 C18.60147884 54.23495303 12.98057964 65.36783208 3.0078125 74.95703125 C-7.94458444 83.48326431 -20.68819425 87.14114142 -34.4609375 85.87890625 C-48.15086461 83.01397163 -59.99383305 74.96968467 -67.6484375 63.31640625 C-73.79056461 52.4482993 -76.42256749 40.07187045 -73.80078125 27.78515625 C-69.40168146 13.00722794 -60.67010781 3.03423253 -47.62109375 -4.640625 C-32.14685516 -11.88999017 -13.81855234 -9.32265714 0 0 Z " transform="translate(482.4609375,98.12109375)" style="fill: #675BB3;"></path><path d="M0 0 C11.28898635 7.5259909 19.65398545 17.04775953 22.81640625 30.51171875 C25.08903446 44.504347 21.68208396 56.76061274 14.2578125 68.69921875 C7.32443383 78.28764123 -3.66417996 85.14851399 -15.3828125 87.171875 C-29.78015429 88.71789828 -42.24297506 85.45289542 -53.7109375 76.421875 C-63.02923746 68.00952087 -69.05087846 56.4976868 -69.9609375 43.984375 C-70.41028946 30.05446429 -66.05052737 17.96094084 -56.4609375 7.671875 C-41.03926218 -6.70139696 -18.52464524 -10.78379925 0 0 Z " transform="translate(270.7109375,6.578125)" style="fill: #367ACC;"></path><path d="M0 0 C0.88147705 0.00757324 1.7629541 0.01514648 2.67114258 0.02294922 C13.58736437 0.29859614 21.53739609 3.90911969 30.1875 10.4375 C31.02410156 11.05496094 31.86070312 11.67242187 32.72265625 12.30859375 C40.38314817 18.92502496 45.51567487 29.82612998 46.53125 39.8203125 C46.94875428 55.65068315 42.10949587 67.83826255 31.38671875 79.3984375 C22.89025453 87.27615389 12.40682119 91.03112227 0.9375 90.9375 C0.11266113 90.93177979 -0.71217773 90.92605957 -1.56201172 90.92016602 C-14.27033063 90.55279491 -23.77391211 85.27661374 -32.7421875 76.5625 C-41.87462173 66.84214082 -45.34225722 55.53420969 -45.12109375 42.35546875 C-44.09130211 29.28102554 -38.08953828 18.90042789 -28.69140625 9.96484375 C-25.34832308 7.2472855 -21.72475039 5.21967958 -17.8125 3.4375 C-17.24426514 3.17638428 -16.67603027 2.91526855 -16.09057617 2.64624023 C-10.68643981 0.36807232 -5.82869057 -0.0701514 0 0 Z " transform="translate(115.8125,97.5625)" style="fill: #63AC3C;"></path></svg></svg></g></g><defs><clipPath id="SvgjsClipPath1212"><rect width="1000" height="1000" x="0" y="0" rx="500" ry="500"></rect></clipPath></defs></svg>