<svg xmlns="http://www.w3.org/2000/svg" display="block" viewBox="0 0 575 489"><path fill="none" d="M0 0h575v489H0V0Z"/><path fill="#357acc" d="M389.1 18.6A20 20 0 0 1 399 30a21 21 0 0 1-2.3 15.6 210.6 210.6 0 0 1-6.2 9l-6 8.5A1614.7 1614.7 0 0 0 369 85.2l-2 3c-14.4 20.6-14.4 20.6-21.1 29.9a218.7 218.7 0 0 0-21.2 33.4l-1 2c-1 2.1-1.8 4.3-2.7 6.5l-1 2.6c-3.8 11-3.5 21.7-3.5 33.1v11a5066.5 5066.5 0 0 0 0 60.6v9.6c0 9.6-3.6 17.2-8.8 25.2a187.5 187.5 0 0 0-20.3 47l-9.5 30.3c-2.9 9.5-5.9 19-9 28.4a1286.7 1286.7 0 0 0-12.5 40.1l-1 3.8a23.2 23.2 0 0 1-5.4 8.3c-3 1-3 1-6 1-2.2-1.2-2.2-1.2-4-3-.5-2-.5-2-.5-4.5v-20a5822.8 5822.8 0 0 0 0-48.8v-41.8a266602.2 266602.2 0 0 1 0-35.9v-2.4a26402 26402 0 0 0-.1-100v-3c0-6.8 0-6.8-3.4-12.6-3.2-1.6-5.4-1.5-9-1-5.2 4.5-8.9 11.1-12.6 16.8l-1.8 2.8a4207 4207 0 0 0-15.3 23.5A660 660 0 0 1 182 253c1.7 3.6 3.8 6.2 6.5 9.1l1.4 1.6a288 288 0 0 0 9.7 9.8l2.4 2.4 4.8 4.6c5.3 5.2 9.4 10 10.7 17.4 0 7.2-1.1 12.6-6.2 17.9-5.2 4.6-9.4 5.7-16.4 5.6-5-.7-8-3.2-11.9-6.4l-3-2.5a914.4 914.4 0 0 1-16-13.6l-2.6-2.2a12.6 12.6 0 0 0-7.4-2.7c-2.4 2.4-2.3 3.2-2.4 6.6l-.1 2.8a1058.9 1058.9 0 0 0-.5 20.3 65 65 0 0 0 11.5 43 1664.2 1664.2 0 0 0 13.6 23.1l7.4 12.7a1580 1580 0 0 0 22.7 38.3l2 3.2 3.6 5.9 1.7 2.6 1.4 2.3c2.3 4.5 2 8.7.4 13.4-2.7 6.1-7 10.1-13.3 12.8-7 1-12.7-.6-18.5-4.8-2.5-2.2-4-4.2-5.8-7.1l-1.8-3-1.9-3-2-3.3a2438.2 2438.2 0 0 1-10.8-17.6 2630.7 2630.7 0 0 1-34.7-57.4c-.6-.8-1.1-1.7-1.6-2.7l-1.4-2.3c-1.8-2.1-2.8-2.4-5.5-2.8-1.6 3.2-1.2 6.7-1.2 10.2v2.6a2607 2607 0 0 0 0 14.3 7343.1 7343.1 0 0 0-.4 56.6c0 5.8-1.3 10-5.3 14.4l-2.1 1.7-2 1.8c-5 3.6-11.2 3-17 2.4a26 26 0 0 1-12.1-12.3c-1-3.3-1.1-6.1-1.1-9.6v-9a4453.3 4453.3 0 0 0 0-32.3 15456.8 15456.8 0 0 1-.2-106.1c.2-20.6-7.7-34.9-22-49.4a312 312 0 0 0-16.4-15.6c-4-3.5-7.9-7.2-11.7-11l-2-2A3199.5 3199.5 0 0 1 9.8 219l-2-1.9c-5.2-5.3-8.2-9.1-8.3-17 .2-6.3 1-10.5 5.5-15.1 4.1-3.8 7.9-5.3 13.5-5.6 8.8.5 13.6 4.3 19.5 10.5 3.1 3.3 6.6 6.2 10 9.1l3.2 2.8C65.5 216 65.5 216 82.9 223c5.7-.8 10.8-3.2 16-5.6a49.2 49.2 0 0 1 45.8 5.4c2.2 1.5 2.2 1.5 4.2.7 3-2.1 4.7-5 6.6-8l2.6-4 1.5-2.3 7.4-11a46668.4 46668.4 0 0 0 23.2-34.4c19.4-28.8 39-42.1 73-49 26.6-5.3 45.8-22.5 63-42.7l6.1-6.7c5-5.5 9.9-11 14.6-16.8 2.8-3.5 5.8-6.7 8.8-10a206 206 0 0 0 7-8.4c7.2-9 14.2-15.1 26.4-11.6Z"/><path fill="#63ac3c" d="M28.2 181.5c3.8 2.2 6.8 5.2 9.8 8.4 3.1 3.3 6.6 6.2 10 9.1l3.2 2.8C65.5 216 65.5 216 82.9 223c5.7-.8 10.8-3.2 16-5.6 10.7-4.7 25-4 35.7.2a119 119 0 0 1 38.7 28.5l4.4 4.5c4.1 4 8.1 8.1 11.9 12.5 5 5.9 10.7 11.1 16.3 16.5 5.6 5.5 10.2 10.3 11.6 18.3 0 7.2-1.1 12.6-6.2 17.9-5.2 4.6-9.4 5.7-16.4 5.6-5-.7-8-3.2-11.9-6.4l-3-2.5a914.4 914.4 0 0 1-16-13.6l-2.6-2.2a12.6 12.6 0 0 0-7.4-2.7c-2.4 2.4-2.3 3.2-2.4 6.6l-.1 2.8a1058.9 1058.9 0 0 0-.5 20.3 65 65 0 0 0 11.5 43 1664.2 1664.2 0 0 0 11.8 20l1.9 3.2 7.3 12.6a1580 1580 0 0 0 22.7 38.3l2 3.2 3.6 5.9 1.7 2.6 1.4 2.3c2.3 4.5 2 8.7.4 13.4-2.7 6.1-7 10.1-13.3 12.8-7 1-12.7-.6-18.5-4.8-2.5-2.2-4-4.2-5.8-7.1l-1.8-3-1.9-3-2-3.3a2438.2 2438.2 0 0 1-10.8-17.6 2630.7 2630.7 0 0 1-29.3-48l-1.9-3.3-3.5-6-1.6-2.8-1.4-2.3c-1.8-2.1-2.8-2.4-5.5-2.8-1.6 3.2-1.2 6.7-1.2 10.2a1822981592.2 1822981592.2 0 0 0-.4 71v2.5c0 5.8-1.3 10-5.3 14.4l-2.1 1.7-2 1.8c-5 3.6-11.2 3-17 2.4a26 26 0 0 1-12.1-12.3c-1-3.3-1.1-6.1-1.1-9.6v-9a4453.3 4453.3 0 0 0 0-32.3 15456.8 15456.8 0 0 1-.2-106.1c.2-20.6-7.7-34.9-22-49.4a312 312 0 0 0-16.4-15.6c-4-3.5-7.9-7.2-11.7-11l-2-2A3199.5 3199.5 0 0 1 9.8 219l-2-1.9c-5.2-5.3-8.2-9.1-8.3-17 .2-6.3 1-10.5 5.5-15.1 6.6-6 15-7 23.2-3.5Z"/><path fill="#675bb3" d="M478.6 202c7 4.2 12 10.2 14.4 18 .4 3.2.4 6.4.3 9.6v2.8a466.2 466.2 0 0 1-2.2 35.3 4557.7 4557.7 0 0 1-3.5 44.5c-1.3 16.7-3 31-16 43.2a45.5 45.5 0 0 1-33.6 10.9 1379.1 1379.1 0 0 1-15 0 5794.3 5794.3 0 0 1-57 .2h-2.6c-4 0-6 .2-9.4 2.3a21.1 21.1 0 0 0-4.7 8.7l-.8 2.1a672 672 0 0 0-4.6 13.5l-5.9 17.4c-11.5 34.3-11.5 34.3-17 49.7l-1 3.2c-2.5 7-4.8 11.5-11.2 15.4-6.6 3-13.5 3-20.6 2.9h-6.9c-7 0-13.1 0-19-4.2-3.3-3.7-3.8-7.4-3.8-12.2.8-4 3.4-6.6 6.5-9.3 2.8-1.4 5.7-1.4 8.8-1.6 2.5-.3 2.5-.3 5.2-2.4 1-2.3 1.8-4.6 2.6-7l.7-2.2 2.3-7.2a4579.7 4579.7 0 0 1 10.3-31.8l.9-2.6a11334.2 11334.2 0 0 1 15.7-48c4.8-14.7 11.6-26.8 25.6-34a42 42 0 0 1 18.9-4.5h2a720.6 720.6 0 0 1 10.9 0 3942 3942 0 0 1 45-.3 14 14 0 0 0 8.1-3.4c2.5-3.4 2.5-7.4 2.8-11.5l.2-2.2a1123.5 1123.5 0 0 0 1-12.6 6792.1 6792.1 0 0 0 3.6-42.9c1.2-13.7 3.8-25 14.3-34.6a132.4 132.4 0 0 1 5.8-4.5c7.7-5 20.7-4.4 29-.7Z"/><path fill="#fda20a" d="M498 280c22 3.1 42.1 20.1 55.3 37.3a111 111 0 0 1 19.4 83.5A112.4 112.4 0 0 1 550 449l-2.3 2.8A114 114 0 0 1 474 489c-30 1.9-57-8-80-27l-2-1.5c-14.4-11.1-23.6-29.5-29-46.5l-1-3c-3-9.5-5.2-24.3-2-34h27c0 2.7.2 5.3.3 8a80.4 80.4 0 0 0 23.6 54.2 74.7 74.7 0 0 0 21.2 15c16.5 9.5 37 8.4 54.9 3.8a81 81 0 0 0 48.2-38.6 81.2 81.2 0 0 0 6.2-60.3A80.6 80.6 0 0 0 524 329l-2-2.3a80 80 0 0 0-23.9-17.1c-2.1-1.6-2.1-1.6-2.7-4.2l.2-3.1v-3.5c.6-6.3 1.4-12.6 2.4-18.8Z"/><path fill="#675bb3" d="M482.5 98.1c9.4 7 15.7 16.4 18.5 27.9a71.2 71.2 0 0 1 .4 12.5 48 48 0 0 1-16 34.6A51.8 51.8 0 0 1 448 184a52.4 52.4 0 0 1-33.2-22.6 50.5 50.5 0 0 1-6.1-35.5 53.8 53.8 0 0 1 26.1-32.4 49 49 0 0 1 47.7 4.6Z"/><path fill="#367acc" d="M270.7 6.6A50 50 0 0 1 293.5 37c2.3 14-1.1 26.2-8.5 38.2-7 9.6-18 16.4-29.7 18.5A50.2 50.2 0 0 1 217 83a48.7 48.7 0 0 1-16.3-32.4c-.4-14 4-26 13.6-36.4a47.5 47.5 0 0 1 56.4-7.6Z"/><path fill="#63ac3c" d="M115.8 97.6h2.7A45 45 0 0 1 146 108l2.5 1.9a43.8 43.8 0 0 1 13.8 27.5c.5 15.8-4.4 28-15.1 39.6a43.1 43.1 0 0 1-30.4 11.5h-2.5a46.1 46.1 0 0 1-43.6-48.6c1-13 7-23.4 16.4-32.4 3.4-2.7 7-4.7 10.9-6.5l1.7-.8a37.6 37.6 0 0 1 16.1-2.6Z"/></svg>